<svg xmlns="http://www.w3.org/2000/svg" viewBox="0 0 200 200" width="1024" height="1024" role="img" aria-label="Logo PIXOGAMEONLINE">
  <defs>
    <linearGradient id="gGold" x1="0" y1="0" x2="1" y2="1">
      <stop offset="0" stop-color="#FFD97A"/><stop offset=".55" stop-color="#FFC24B"/><stop offset="1" stop-color="#FF6A2C"/>
    </linearGradient>
    <linearGradient id="gEdge" x1="0" y1="1" x2="1" y2="0">
      <stop offset="0" stop-color="#4C8DFF"/><stop offset="1" stop-color="#FFC24B"/>
    </linearGradient>
  </defs>
  <polygon points="100,10 178,55 178,145 100,190 22,145 22,55" fill="#101a33" stroke="url(#gEdge)" stroke-width="3.5" stroke-linejoin="round"/>
  <polygon points="100,28 162,64 162,136 100,172 38,136 38,64" fill="rgba(255,255,255,.03)" stroke="rgba(255,255,255,.10)" stroke-width="1.5"/>
  <g transform="translate(20.2 24) scale(3.8)">
    <path fill-rule="evenodd" clip-rule="evenodd" d="M13 11h12l4 4v4l-4 4h-6.5v6H13V11zm5.5 4.5h5.1l1.1 1.1v1.3l-1.1 1.1h-5.1v-3.5z" fill="url(#gGold)"/>
    <path d="M13 11h12l4 4" fill="none" stroke="rgba(255,255,255,.45)" stroke-width=".7"/>
  </g>
  <path d="M62 152h18" stroke="#4C8DFF" stroke-width="3" stroke-linecap="round" opacity=".8"/>
  <path d="M120 152h18" stroke="#FF6A2C" stroke-width="3" stroke-linecap="round" opacity=".8"/>
  <circle cx="100" cy="100" r="78" fill="none" stroke="rgba(76,141,255,.22)" stroke-width="1.2" stroke-dasharray="5 9"/>
</svg>
